<svg version="1.1" xmlns="http://www.w3.org/2000/svg" xmlns:xlink="http://www.w3.org/1999/xlink" viewBox="0 0 1000 670"
  xml:space="preserve">
  <path 
    d="M849,142.5c0,0-1.4-3.1-15-12c-13.6-8.9-138-82-138-82s-11.7-10.8-37-7c0,0-0.5,0.3-3-1s-7-2-7-2
	s-132.6,1.1-217,16c0,0-41.6,6.9-60,16s-45.5,33-69,55c0,0-23.1,19.8-69,78l-30,37c0,0-20.3,27.1-24,34s-6.4-2.5-12,8
	c-5.6,10.5-12,27-12,27s-6.5,11.8-9,14s-1.2,1.9,1,7s7.5,23.1,10,39s5.5,36.6,23,38s178,8,178,8s12.3,1.9,23-13
	c10.7-14.9,32.9-54.2,58-60c25.1-5.8,85-15,85-15s17.9,18.4,28,38c0,0,25,15.3,30,31c0,0,15.3-18.9,38-15c22.7,3.9,27.2,17.7,29,41
	c0,0,18.8,11.1,22,65c0,0,123-27.5,143-29l4-14c0,0,4.5-56.3,23-52c0,0,6.6,6.6,9,1s6-19,6-19l12-1v-78
	C869,295.5,871.9,196.4,849,142.5z M360,162l-9,43c0,0-2,10-14,10s-44,14-44,14h-34c0,0-9-34,21-60s36-36,61-30S360,162,360,162z"></path>
</svg>