<svg version="1.1" xmlns="http://www.w3.org/2000/svg" xmlns:xlink="http://www.w3.org/1999/xlink" viewBox="0 0 1000 670" xml:space="preserve">
  <path d="m529 444c10.18 1.428 260-43 260-43s8.5.351 7-6a3.635 3.635 0 0 1 3-3s1.95-2.04-1-4c3.4-11.747 13-30 13-30a14.784 14.784 0 0 1 2-9c2.66-4.185 16.892-30.346 38-45 2.779.616 4 1 4 1a4.385 4.385 0 0 0 2-4c.9-1.935 5.5-3.072 18-3 8.288 0 36.615 15.634 41 30 .519-9.777-3.948-45.136-23-66-26.975-12.02-37.025-141.646-32-91-.512-5.16-5-24-5-24l-4-9-2-6s.128-8.234-15-10-26.927-2.847-31-3c-8.447-.325-94.409-7.931-162 2-21.684 2.476-55.688 12.272-60 14s-5.262 3.3-5 5 3.115 3.444 0 5c-5.57 4.24-49.637 40.533-90 90-2.421-.115-5.822.412-10 4s-11 3-11 3h-82s-111.58-3.182-146-11c-1.18-.346-3.418-1.968-3-2s-1-1-1-1-58.832 14.069-95 28c-14.666 5.279-43.9 32.624-43 40s14 8 14 8 65.108 10.574 131 10c17.753 0 90.93-7.656 108-12 5.121-1.587 83-17 83-17s-10.506 18.619-15 22-6.825 4.419-15 7-20.656 5.256-27 13-19.055 19.525-25 23-13.322 8.357-26 9-36.278 2.394-43 0-19.774-14.4-30-15c-10.717.029-12 0-12 0a30.224 30.224 0 0 0 -9 5c-3.628 3.2-21.5 18.2-24 19a11.062 11.062 0 0 1 -5 0c-1.275-.235-45-4-45-4s-2.675-.428-6-1-6-1-6-1l-39-5a7.451 7.451 0 0 1 -5-4c.664-1.582-1.427-9.324-4-20-.062-2.506-2.531-7.032-10-3-5.422 3.954-19.162 16.526-21 28-.127 3.832-.96 5.842-1 9 .017.763-3.238 6.375 0 10 .044 1.8-.476 15.507-2 34-.332 4.189 0 17 0 17s-3.351 1.672-3 4 3.1 5.036 5 7c61.076 20.72 88.836 29.992 218 46 7.086.693 52 3 52 3s8.517 2.709 9-4 2.742-17.222 3-25 11.064-53.687 25-73c1.922-2.891 16.318-21.621 35-37 2.881-2.021 18.483-16 50-16 38.6 1.344 57.22 26.052 65 45 3.382 8.279 4.347 22.356 8 66zm-137-310s.842.893-1 2-37.99 10.978-122 80c-1.428 1.28-9 7-9 7h-1s68.638-61.014 129-88c.867-.379 2-1 2-1s1.472-.87 2 0zm206 24"></path>
</svg>