<svg version="1.1" xmlns="http://www.w3.org/2000/svg" xmlns:xlink="http://www.w3.org/1999/xlink" viewBox="0 0 1000 670"
  xml:space="preserve">
  <path d="M961.4,353.9L961.4,353.9l0-4l-1.4-3.6c0-0.6-0.1-1.1-0.6-1.4c-1.7-6.7-1.4-13.5-1.6-20.2
	c-0.5-19.7-4.6-38.3-13.3-55.9c-0.7-1.1-0.6-2.6,0.3-3.5c5.1-6.6,5.9-24.6,1.5-31.7c-0.4-0.9-1.1-1.7-1.9-2.2
	c-19.4-9.8-30.9-27.3-43.3-43.9c-9.2-12.6-19.4-24.5-30.5-35.5c-1.9-1.6-2.8-4.1-2.2-6.5c1.4-9.5-3.5-17.4-13.5-20
	c-23.4-5.9-46.8-12.1-70.9-14.6c-12.7-1.3-25.5-1.8-38.2-3.3c-31.1-3.7-62.4-2.1-93.5-4.2c-2.2-0.2-4.3-0.5-6.4-0.7v-1l-29.9,0
	c0,0,0,0,0,0h-8h-12l0,0h-12l0,0c0,0,0,0,0,0l-10,0c0,0,0,0,0,0h-8v0.8c-22.4,0.2-44.8,1.6-67.1,3.4c-30,2.4-59.7,6.7-89.1,12.9
	c-15.9,3.4-30.2,9.7-44.4,17c0,0,0,0.1,0,0.1l-0.1-0.1c-2.7,0.7-5.1,2-7.3,3.7c-11.3,4.9-21.5,11.9-31.7,18.8
	c-21,14.3-41.7,29-60.6,46c-1.7,1.6-3.7,2.8-5.9,3.6c-8.5,2.9-16.3,7.7-22.7,14.1c-2.5,2.4-5.1,4.8-5.2,8.7c-0.1,1.2-0.7,2.3-1.7,3
	c-0.7,0.5-1.3,1-1.8,1.7c-7.4,12.1-20.4,14-32.3,18c-25.3,8.6-50.9,16.4-75.2,27.7s-43.9,28.3-59.5,50.2c-5.8,8.1-6.5,17.2-6.3,26.6
	c0.1,4.3-0.8,7.5-4,11c-7.6,8.1-9.5,18.4-8.3,29.2c0.5,4.7,0.2,8.9-3.5,12.3c-1.8,1.8-2.6,4.4-2,6.9c1.6,10.1,3.8,20.1,7.8,29.6
	c1.1,2.4,1.4,5.1,0.7,7.6c-1.4,5.9-0.5,12.1,2.4,17.4c1.5,2.9,0.9,4.9-0.8,7.7c-4,6.6-9.3,12.5-11.2,20.4c-1.5,6.1-0.7,7.5,5.3,8.6
	c6.6,1.2,12.9,3.5,19.9,1.1c5.5-1.8,11.5,1.5,17.2,0.5c0.6,0.1,1.2,0.4,1.5,1c1,6.4,6.6,5.7,10.5,6.1c17.3,2.1,34.7,3.6,52.1,5.3
	c19,1.9,38,3.8,57,5.7c7.4,0.7,14.9,1.3,22.3,2.3c24.4,3.3,48.9,5,73.4,7.1c11.3,1,22.5,1.9,33.8,2.8c3.1,0.2,6.8,1.5,8.4-3.1
	c0.4-1.2,2-0.8,3.2-0.8c25.4-1.4,50.8-1.7,76.1,2.8c5.5,1,11.2,0.8,16.7-0.6c49.9-12.2,100.2-23,149.9-36.3
	c53.9-14.6,108.6-25.2,163.2-35.8c23.1-4.5,46-10.2,69.3-13.8c32.8-5,62-20.3,93-30.4c12.6-4.1,24.8-9.4,37.4-13.6
	c6.1-2,10.5-5.2,13.2-11h1.9v-7v0v-10v-23.9c0,0,0,0,0,0c0,0,0,0,0,0V353.9z M546.2,249.1c-0.2-0.3-2.2,0.3-3.2,0.7
	c-20.7,8.8-42.3,9.1-64.2,7.8c-10.6-0.7-21.3-0.4-31.9-0.4c-48.6,0-97.1-2.9-145.7-3.7c-20.6-0.4-41.2-0.5-61.8-2
	c-2.3-0.1-4.6-0.9-6.5-2.1c-3.3-2.1-4-4.2-1.5-7.6c5.8-8.1,13.7-13.9,21.2-20.1c31.1-26,61.9-52.4,95.9-74.8
	c3.5-2.3,7.1-4.3,10.6-6.4l0,0c2.6-0.9,5-2.2,7.1-3.9c16.1-2.9,32.5-2.2,48.7-2.9c6.7-0.3,13.6-1.2,20,2.5c1.3,0.7,3.3,0.4,4.9,0.3
	c25.8-1.2,51.6-0.8,77.3-0.9c4,0,8,0.2,11.9-1c6.6-2,13.2,0,19.8-0.1c19.3-0.2,38.6,0.3,57.8,1.9c2.6,0.2,5.3-0.4,7.9-0.6
	s5.7-0.8,7.4,2.5c1.6,3,0.8,5.5-1.1,8.2c-9.2,12.6-18.3,25.3-27.2,38.1c-14.7,21.1-29.2,42.4-43.8,63.6
	C549.3,248.9,548.8,253.6,546.2,249.1z M868.6,199.6c-16.2,17.1-36.7,25.4-59.5,29.7c-37.5,7.1-74.9,14.6-112.3,22
	c-7.8,1.5-14.5,6.2-22.4,8c-16.3,3.7-32.9,4.3-49.3,6.8c-4.3,0.7-8.8,0.7-9.4,6.6c-0.2,2.1-2,1.4-3.2,1.4c-11,0.1-21.9-0.1-32.9,0.9
	c-5.5,0.5-7.4-3.1-5.3-8.3c13.1-32.3,33.3-60.5,52.5-89.1c7.3-10.9,16.1-21.1,27.1-29c4.3-3.1,9.1-4.7,13.8-6.7
	c17.7-7.4,36.6-11.2,55.7-11.3c12.8-0.2,25.6-1.9,38.3-0.9c18.5-0.4,36.5,2.8,54.5,5.8c10.6,1.8,18.4,8.2,25.6,15.4
	c10.8,10.7,19.7,22.9,27.9,35.7C873.6,192.5,873.4,194.5,868.6,199.6z"></path>
</svg>